<svg id="wave" style="transform:rotate(180deg); transition: 0.3s" viewBox="0 0 1440 100" version="1.1" xmlns="http://www.w3.org/2000/svg"><defs><linearGradient id="sw-gradient-0" x1="0" x2="0" y1="1" y2="0"><stop stop-color="rgba(14, 84, 84, 1)" offset="0%"></stop><stop stop-color="rgba(14, 84, 84, 1)" offset="100%"></stop></linearGradient></defs><path style="transform:translate(0, 0px); opacity:1" fill="url(#sw-gradient-0)" d="M0,20L21.8,26.7C43.6,33,87,47,131,46.7C174.5,47,218,33,262,26.7C305.5,20,349,20,393,28.3C436.4,37,480,53,524,51.7C567.3,50,611,30,655,25C698.2,20,742,30,785,38.3C829.1,47,873,53,916,53.3C960,53,1004,47,1047,51.7C1090.9,57,1135,73,1178,71.7C1221.8,70,1265,50,1309,46.7C1352.7,43,1396,57,1440,51.7C1483.6,47,1527,23,1571,16.7C1614.5,10,1658,20,1702,28.3C1745.5,37,1789,43,1833,48.3C1876.4,53,1920,57,1964,51.7C2007.3,47,2051,33,2095,23.3C2138.2,13,2182,7,2225,18.3C2269.1,30,2313,60,2356,68.3C2400,77,2444,63,2487,53.3C2530.9,43,2575,37,2618,41.7C2661.8,47,2705,63,2749,61.7C2792.7,60,2836,40,2880,28.3C2923.6,17,2967,13,3011,23.3C3054.5,33,3098,57,3120,68.3L3141.8,80L3141.8,100L3120,100C3098.2,100,3055,100,3011,100C2967.3,100,2924,100,2880,100C2836.4,100,2793,100,2749,100C2705.5,100,2662,100,2618,100C2574.5,100,2531,100,2487,100C2443.6,100,2400,100,2356,100C2312.7,100,2269,100,2225,100C2181.8,100,2138,100,2095,100C2050.9,100,2007,100,1964,100C1920,100,1876,100,1833,100C1789.1,100,1745,100,1702,100C1658.2,100,1615,100,1571,100C1527.3,100,1484,100,1440,100C1396.4,100,1353,100,1309,100C1265.5,100,1222,100,1178,100C1134.5,100,1091,100,1047,100C1003.6,100,960,100,916,100C872.7,100,829,100,785,100C741.8,100,698,100,655,100C610.9,100,567,100,524,100C480,100,436,100,393,100C349.1,100,305,100,262,100C218.2,100,175,100,131,100C87.3,100,44,100,22,100L0,100Z"></path></svg>